<svg xmlns="http://www.w3.org/2000/svg" style="display: none;"><symbol id="bike" viewBox="0 0 511.989 511.989"><title>bike</title><path d="M405.337,207.992c-9.734,0-19.171,1.312-28.155,3.773l-27.469-71.444l9.938-10.218c4.062-4.188,4.016-10.859-0.109-14.992 l-21.328-21.32c-2-2-4.719-3.133-7.547-3.133h-53.326c-5.891,0-10.672,4.781-10.672,10.672s4.78,10.664,10.671,10.664h48.904 l10.781,10.773l-7.375,7.562c-2.969,3.055-3.719,7.437-2.328,11.187c0,0.023,0.016,0.055,0.016,0.086l9.812,25.5l-145.153,18.141 v-19.914h32c5.891,0,10.672-4.781,10.672-10.671s-4.781-10.664-10.672-10.664h-63.999c-5.891,0-10.664,4.773-10.664,10.664 s4.773,10.671,10.664,10.671h10.671v29.109l-14.898,25.546c-14.711-7.656-31.406-11.992-49.101-11.992 C47.858,207.992,0,255.843,0,314.645c0,58.844,47.858,106.686,106.67,106.686c51.515,0,94.607-36.717,104.521-85.342h14.64 c4.406,12.422,16.257,21.344,30.171,21.344c17.648,0,31.991-14.344,31.991-32c0-7.375-2.499-14.186-6.718-19.592l68.326-106.28 l7.672,19.984c-34.734,17.602-58.608,53.671-58.608,95.2c0,58.844,47.858,106.686,106.67,106.686 c58.812,0,106.654-47.842,106.654-106.686C511.991,255.842,464.148,207.992,405.337,207.992z M106.671,399.988 c-47.054,0-85.334-38.281-85.334-85.344c0-47.037,38.281-85.317,85.334-85.317c13.781,0,26.804,3.281,38.335,9.109l-47.554,81.521 c-2.961,5.094-1.25,11.609,3.844,14.594c1.695,0.969,3.539,1.438,5.367,1.438c0,0,0.031,0,0.055,0h82.584 C179.802,372.769,146.357,399.988,106.671,399.988z M125.241,314.644l37.499-64.263c17.922,15.656,29.257,38.672,29.257,64.263 H125.241z M225.832,314.644h-12.5c0-33.466-15.499-63.38-39.694-82.95l7.695-13.203l50.257,86.155 C229.113,307.584,227.145,310.958,225.832,314.644z M256.004,335.988c-5.891,0-10.672-4.797-10.672-10.656 c0-5.906,4.781-10.688,10.672-10.688c5.883,0,10.664,4.781,10.664,10.688C266.668,331.191,261.887,335.988,256.004,335.988z M263.34,294.177c-2.367-0.546-4.813-0.843-7.336-0.843c-2.055,0-4.055,0.188-5.984,0.562l-51.327-87.991l131.989-16.5 L263.34,294.177z M405.337,399.988c-47.062,0-85.343-38.281-85.343-85.344c0-32.451,18.25-60.74,45-75.162l30.39,79.005 c1.641,4.219,5.672,6.844,9.953,6.844c1.266,0,2.562-0.25,3.828-0.719c5.499-2.125,8.233-8.281,6.14-13.779l-30.42-79.03 c6.562-1.617,13.421-2.477,20.452-2.477c47.046,0,85.326,38.28,85.326,85.317C490.663,361.707,452.383,399.988,405.337,399.988z"/></symbol><symbol id="food-and-restaurant" viewBox="0 -77 512 512"><title>food-and-restaurant</title><path d="m102.398438 358.398438h-59.730469c-4.710938 0-8.535157-3.8125-8.535157-8.53125v-34.132813c0-4.71875 3.824219-8.535156 8.535157-8.535156h59.730469c4.710937 0 8.535156 3.816406 8.535156 8.535156v34.132813c0 4.71875-3.824219 8.53125-8.535156 8.53125zm-51.199219-17.066407h42.667969v-17.066406h-42.667969zm0 0"/><path d="m469.332031 358.398438h-59.730469c-4.710937 0-8.535156-3.8125-8.535156-8.53125v-34.132813c0-4.71875 3.824219-8.535156 8.535156-8.535156h59.730469c4.710938 0 8.535157 3.816406 8.535157 8.535156v34.132813c0 4.71875-3.824219 8.53125-8.535157 8.53125zm-51.199219-17.066407h42.667969v-17.066406h-42.667969zm0 0"/><path d="m443.734375 102.398438c-18.824219 0-34.132813-15.308594-34.132813-34.132813s15.308594-34.132813 34.132813-34.132813 34.132813 15.308594 34.132813 34.132813-15.308594 34.132813-34.132813 34.132813zm0-51.199219c-9.414063 0-17.066406 7.65625-17.066406 17.066406 0 9.414063 7.652343 17.066406 17.066406 17.066406 9.410156 0 17.066406-7.652343 17.066406-17.066406 0-9.410156-7.65625-17.066406-17.066406-17.066406zm0 0"/><path d="m443.734375 290.132812c-18.824219 0-34.132813-15.308593-34.132813-34.132812s15.308594-34.132812 34.132813-34.132812 34.132813 15.308593 34.132813 34.132812-15.308594 34.132812-34.132813 34.132812zm0-51.199218c-9.414063 0-17.066406 7.652344-17.066406 17.066406s7.652343 17.066406 17.066406 17.066406c9.410156 0 17.066406-7.652344 17.066406-17.066406s-7.65625-17.066406-17.066406-17.066406zm0 0"/><path d="m486.398438 324.265625h-460.796876c-14.117187 0-25.601562-11.484375-25.601562-25.597656v-273.066407c0-14.117187 11.484375-25.601562 25.601562-25.601562h460.796876c14.117187 0 25.601562 11.484375 25.601562 25.601562v273.066407c0 14.113281-11.484375 25.597656-25.601562 25.597656zm-460.796876-307.199219c-4.703124 0-8.535156 3.824219-8.535156 8.535156v273.066407c0 4.710937 3.832032 8.53125 8.535156 8.53125h460.796876c4.703124 0 8.535156-3.820313 8.535156-8.53125v-273.066407c0-4.710937-3.832032-8.535156-8.535156-8.535156zm0 0"/><path d="m349.867188 290.132812h-273.066407c-23.527343 0-42.667969-19.140624-42.667969-42.667968v-170.664063c0-23.527343 19.140626-42.667969 42.667969-42.667969h273.066407c23.527343 0 42.667968 19.140626 42.667968 42.667969v170.664063c0 23.527344-19.140625 42.667968-42.667968 42.667968zm-273.066407-238.933593c-14.113281 0-25.601562 11.488281-25.601562 25.601562v170.664063c0 14.117187 11.488281 25.601562 25.601562 25.601562h273.066407c14.113281 0 25.597656-11.484375 25.597656-25.601562v-170.664063c0-14.113281-11.484375-25.601562-25.597656-25.601562zm0 0"/><path d="m503.464844 358.398438h-494.929688c-4.710937 0-8.535156-3.8125-8.535156-8.53125s3.824219-8.535157 8.535156-8.535157h494.929688c4.710937 0 8.535156 3.816407 8.535156 8.535157s-3.824219 8.53125-8.535156 8.53125zm0 0"/><path d="m426.667969 136.535156c-4.710938 0-8.535157-3.816406-8.535157-8.535156v-8.535156c0-4.71875 3.824219-8.53125 8.535157-8.53125 4.710937 0 8.53125 3.8125 8.53125 8.53125v8.535156c0 4.71875-3.820313 8.535156-8.53125 8.535156zm0 0"/><path d="m460.800781 136.535156c-4.710937 0-8.535156-3.816406-8.535156-8.535156v-8.535156c0-4.71875 3.824219-8.53125 8.535156-8.53125 4.710938 0 8.53125 3.8125 8.53125 8.53125v8.535156c0 4.71875-3.820312 8.535156-8.53125 8.535156zm0 0"/><path d="m426.667969 170.667969c-4.710938 0-8.535157-3.816407-8.535157-8.535157v-8.53125c0-4.71875 3.824219-8.535156 8.535157-8.535156 4.710937 0 8.53125 3.816406 8.53125 8.535156v8.53125c0 4.71875-3.820313 8.535157-8.53125 8.535157zm0 0"/><path d="m460.800781 170.667969c-4.710937 0-8.535156-3.816407-8.535156-8.535157v-8.53125c0-4.71875 3.824219-8.535156 8.535156-8.535156 4.710938 0 8.53125 3.816406 8.53125 8.535156v8.53125c0 4.71875-3.820312 8.535157-8.53125 8.535157zm0 0"/><path d="m426.667969 204.800781c-4.710938 0-8.535157-3.816406-8.535157-8.535156v-8.53125c0-4.71875 3.824219-8.535156 8.535157-8.535156 4.710937 0 8.53125 3.816406 8.53125 8.535156v8.53125c0 4.71875-3.820313 8.535156-8.53125 8.535156zm0 0"/><path d="m460.800781 204.800781c-4.710937 0-8.535156-3.816406-8.535156-8.535156v-8.53125c0-4.71875 3.824219-8.535156 8.535156-8.535156 4.710938 0 8.53125 3.816406 8.53125 8.535156v8.53125c0 4.71875-3.820312 8.535156-8.53125 8.535156zm0 0"/><path d="m76.800781 128c-2.183593 0-4.371093-.835938-6.035156-2.5-3.335937-3.335938-3.335937-8.730469 0-12.066406l42.667969-42.667969c3.335937-3.335937 8.730468-3.335937 12.066406 0s3.335938 8.730469 0 12.066406l-42.667969 42.667969c-1.664062 1.664062-3.847656 2.5-6.03125 2.5zm0 0"/><path d="m136.535156 110.933594c-2.1875 0-4.371094-.835938-6.035156-2.5-3.335938-3.335938-3.335938-8.730469 0-12.066406l25.601562-25.601563c3.335938-3.335937 8.726563-3.335937 12.066407 0 3.335937 3.335937 3.335937 8.730469 0 12.066406l-25.601563 25.601563c-1.664062 1.664062-3.847656 2.5-6.03125 2.5zm0 0"/><path d="m76.800781 170.667969c-2.183593 0-4.371093-.835938-6.035156-2.5-3.335937-3.339844-3.335937-8.730469 0-12.066407l17.066406-17.066406c3.339844-3.339844 8.730469-3.339844 12.066407 0 3.335937 3.335938 3.335937 8.726563 0 12.066406l-17.066407 17.066407c-1.664062 1.664062-3.847656 2.5-6.03125 2.5zm0 0"/><path d="m110.933594 136.535156c-2.183594 0-4.371094-.839844-6.035156-2.503906-3.335938-3.335938-3.335938-8.726562 0-12.0625l8.535156-8.535156c3.335937-3.335938 8.730468-3.335938 12.066406 0 3.335938 3.335937 3.335938 8.730468 0 12.066406l-8.535156 8.53125c-1.664063 1.664062-3.847656 2.503906-6.03125 2.503906zm0 0"/></symbol><symbol id="kitchen" viewBox="-96 0 512 512"><title>kitchen</title><path d="m280 0h-240c-22.058594 0-40 17.941406-40 40v392c0 22.058594 17.941406 40 40 40h10v10c0 16.539062 13.460938 30 30 30h10c11.03125 0 20-8.96875 20-20v-20h100v20c0 11.03125 8.96875 20 20 20h10c16.539062 0 30-13.460938 30-30v-10h10c22.058594 0 40-17.941406 40-40v-392c0-22.058594-17.941406-40-40-40zm-190 492h-10c-5.511719 0-10-4.488281-10-10v-10h20l.011719 20s0 0-.011719 0zm160-10c0 5.511719-4.488281 10-10 10h-10v-20h20zm50-50c0 11.03125-8.96875 20-20 20h-240c-11.03125 0-20-8.96875-20-20v-240h280zm0-260h-280v-132c0-11.03125 8.96875-20 20-20h240c11.03125 0 20 8.96875 20 20zm0 0"/><path d="m130.179688 152h-70c-11.027344 0-20-8.972656-20-20v-10c0-16.542969 13.457031-30 30-30h50c16.542968 0 30 13.457031 30 30v10c0 11.027344-8.972657 20-20 20zm-60-40c-5.515626 0-10 4.484375-10 10v10h70.003906l-.003906-10c0-5.515625-4.484376-10-10-10zm0 0"/><path d="m120.179688 272h-50c-16.542969 0-30-13.457031-30-30v-10c0-11.027344 8.972656-20 20-20h70c11.027343 0 20 8.972656 20 20v10c0 16.542969-13.457032 30-30 30zm-60-40v10c0 5.515625 4.484374 10 10 10h50c5.515624 0 10-4.484375 10-10v-10zm0 0"/><path d="m270 432c-5.523438 0-10-4.476562-10-10v-80c0-5.523438 4.476562-10 10-10s10 4.476562 10 10v80c0 5.523438-4.476562 10-10 10zm0 0"/><path d="m270.019531 312c-5.523437 0-10.003906-4.476562-10.003906-10s4.472656-10 9.996094-10h.007812c5.523438 0 10 4.476562 10 10s-4.476562 10-10 10zm0 0"/></symbol><symbol id="bulb" viewBox="0 0 431.76 431.76"><title>bulb</title><g> <g> <path d="M215.88,85.12C153.556,85.164,103.044,135.676,103,198c0.557,40.682,20.351,78.696,53.36,102.48V382 c0.027,0.932,0.216,1.853,0.56,2.72v0.64c0.138,0.33,0.299,0.651,0.48,0.96l28.16,41.92c1.49,2.205,3.979,3.524,6.64,3.52h46.56 c2.661,0.004,5.15-1.315,6.64-3.52l28.16-41.92c0.181-0.309,0.342-0.63,0.48-0.96v-0.64c0.344-0.867,0.533-1.788,0.56-2.72v-81.52 c33.01-23.784,52.803-61.798,53.36-102.48C327.918,135.987,277.891,85.603,215.88,85.12z M234.92,416h-38.08l-17.44-25.92h72.88 L234.92,416z M172.44,374.08v-21.2h86.88l0.08,21.2H172.44z M263,289.52l0,0.24c-2.259,1.487-3.613,4.015-3.6,6.72v40.64h-86.96 V296c0.013-2.705-1.341-5.233-3.6-6.72c-30.628-20.467-49.233-54.687-49.76-91.52c1.537-53.483,46.14-95.594,99.623-94.057 c51.323,1.475,92.582,42.734,94.057,94.057C312.312,234.679,293.697,269.005,263,289.52z"/> </g> </g><g> <g> <path d="M219.08,121.36c-4.418,0-8,3.582-8,8s3.582,8,8,8c33.251,0.044,60.196,26.989,60.24,60.24c0,4.418,3.582,8,8,8 s8-3.582,8-8C295.276,155.512,261.168,121.404,219.08,121.36z"/> </g> </g><g> <g> <path d="M81.48,189.6h-57.6c-4.418,0-8,3.582-8,8s3.582,8,8,8h57.6c4.418,0,8-3.582,8-8c0,0,0,0,0,0 C89.48,193.182,85.898,189.6,81.48,189.6z"/> </g> </g><g> <g> <path d="M407.88,189.6h-57.6c-4.418,0-8,3.582-8,8s3.582,8,8,8h57.6c4.418,0,8-3.582,8-8S412.298,189.6,407.88,189.6z"/> </g> </g><g> <g> <path d="M127.313,287.12c-2.874-3.356-7.924-3.747-11.28-0.873c-0.313,0.268-0.605,0.56-0.873,0.873v-0.16L74.28,328 c-3.356,2.874-3.747,7.924-0.873,11.28c2.874,3.356,7.924,3.747,11.28,0.873c0.313-0.268,0.605-0.56,0.873-0.873l40.88-40.88 C129.796,295.526,130.187,290.476,127.313,287.12z"/> </g> </g><g> <g> <path d="M356.607,56c-2.995-2.565-7.412-2.565-10.407,0l-40.88,40.88c-3.137,3.111-3.158,8.177-0.047,11.314 c1.513,1.526,3.577,2.379,5.727,2.366l-0.08-0.08c2.126,0.012,4.17-0.823,5.68-2.32l40.88-40.88 C360.354,63.924,359.963,58.874,356.607,56z"/> </g> </g><g> <g> <path d="M359.067,329.609c-0.45-0.609-0.984-1.151-1.587-1.609l-40.88-41.04c-2.874-3.356-7.924-3.747-11.28-0.873 c-3.356,2.874-3.747,7.924-0.873,11.28c0.268,0.313,0.56,0.605,0.873,0.873l40.88,40.88c2.626,3.553,7.636,4.304,11.189,1.678 S361.693,333.162,359.067,329.609z"/> </g> </g><g> <g> <path d="M126.44,96.88L85.56,56c-3.356-2.874-8.406-2.483-11.28,0.873c-2.565,2.995-2.565,7.412,0,10.407l40.88,40.88 c3.356,2.874,8.406,2.483,11.28-0.873C129.005,104.292,129.005,99.875,126.44,96.88z"/> </g> </g><g> <g> <path d="M215.88,0c-4.418,0-8,3.582-8,8v57.84c-0.133,4.416,3.34,8.104,7.756,8.236c0.081,0.002,0.162,0.004,0.244,0.004 c4.418,0,8-3.582,8-8V8C223.88,3.582,220.298,0,215.88,0z"/> </g> </g></symbol><symbol id="home" viewBox="0 0 512 512"><title>home</title><g> <g> <path d="M506.555,208.064L263.859,30.367c-4.68-3.426-11.038-3.426-15.716,0L5.445,208.064 c-5.928,4.341-7.216,12.665-2.875,18.593s12.666,7.214,18.593,2.875L256,57.588l234.837,171.943c2.368,1.735,5.12,2.57,7.848,2.57 c4.096,0,8.138-1.885,10.744-5.445C513.771,220.729,512.483,212.405,506.555,208.064z"/> </g> </g><g> <g> <path d="M442.246,232.543c-7.346,0-13.303,5.956-13.303,13.303v211.749H322.521V342.009c0-36.68-29.842-66.52-66.52-66.52 s-66.52,29.842-66.52,66.52v115.587H83.058V245.847c0-7.347-5.957-13.303-13.303-13.303s-13.303,5.956-13.303,13.303v225.053 c0,7.347,5.957,13.303,13.303,13.303h133.029c6.996,0,12.721-5.405,13.251-12.267c0.032-0.311,0.052-0.651,0.052-1.036v-128.89 c0-22.009,17.905-39.914,39.914-39.914s39.914,17.906,39.914,39.914v128.89c0,0.383,0.02,0.717,0.052,1.024 c0.524,6.867,6.251,12.279,13.251,12.279h133.029c7.347,0,13.303-5.956,13.303-13.303V245.847 C455.549,238.499,449.593,232.543,442.246,232.543z"/> </g> </g></symbol><symbol id="heart" viewBox="0 0 420.8 420.8"><title>heart</title><path d="M413.6,204H378c14.8-33.6,13.2-60.8,7.6-79.2c-9.6-32.8-42-68.4-90-68.4c-12.8,0-25.6,2.4-38.8,7.2 C234,72,218.8,81.2,212,86c-6.8-4.8-21.6-14-44.8-22.4c-13.2-4.8-26.4-7.2-38.8-7.2c-48,0-80.4,35.6-90,68.4 c-5.6,19.6-7.6,49.2,11.2,86.4H6.4c-3.6,0-6.4,2.8-6.4,6.4c0,3.6,2.8,6.4,6.4,6.4h50.8c2,3.6,4.4,7.2,7.2,10.8 c41.6,60,132,125.2,148.4,129.2v0.4c0,0,0.4,0,0.8-0.4c0.4,0,0.8,0,1.2,0v-0.4c14-6.8,100.8-62.8,146.4-129.2c4.4-6,8-12,11.2-18 h42c3.6,0,6.4-2.8,6.4-6.4C420.8,206.4,417.2,204,413.6,204z M349.6,227.6c-42.4,62-120.4,112-137.2,122.8 c-17.2-10.8-94.8-61.2-137.6-122.8c-0.8-1.2-1.6-2.4-2.4-3.6h58.8c2.4,0,4.8-1.2,6-3.6l26.8-52.8l42,107.6c0.8,2.4,3.6,4,6,4 c0,0,0,0,0.4,0c2.8,0,5.2-2,6-4.8l36.8-126l19.6,63.6c0.8,2.4,2.8,4,5.2,4.4c2.4,0.4,4.8-0.8,6.4-2.8l15.6-22.8l13.2,22.4 c1.2,2,3.2,3.2,5.6,3.2h36C354.4,220.4,352,224,349.6,227.6z M364,204h-39.2l-16.4-28c-1.2-2-3.2-3.2-5.6-3.2 c-2.4,0-4.4,0.8-5.6,2.8l-13.6,20l-22-71.6c-0.8-2.8-3.6-4.4-6.4-4.8c-2.8,0-5.6,2-6.4,4.8l-37.2,128.4l-40.4-103.2 c-0.8-2.4-3.2-4-5.6-4c-2.8,0-4.8,1.2-6,3.6l-31.6,62H64.4c-16-29.2-20.4-57.2-13.2-82.4c8.4-28.4,36-58.8,77.6-58.8 c11.2,0,22.8,2.4,34.4,6.4c29.2,10.8,44.8,23.2,45.2,23.2c2.4,2,5.6,2,8,0c0,0,15.6-12.4,45.2-23.2c11.6-4.4,23.2-6.4,34.4-6.4 c41.2,0,69.2,30.4,77.6,58.8C380.4,151.6,376.8,177.2,364,204z"/></symbol><symbol id="help" viewBox="0 0 414.221 414.221"><title>help</title><g> <g> <path d="M301.829,23.599C272.725,8.186,240.308,0.087,207.375,0C95.283-0.02,4.398,90.832,4.378,202.924 c-0.01,52.909,20.643,103.731,57.556,141.636l-8.48,60.32c-0.74,4.356,2.19,8.487,6.546,9.227 c2.011,0.342,4.076-0.097,5.774-1.227l46.08-30.56c99.058,52.46,221.888,14.684,274.348-84.374S400.887,76.058,301.829,23.599z M340.41,334.315c-35.113,35.607-83.027,55.662-133.035,55.685c-32.195,0.044-63.856-8.222-91.92-24c-2.475-1.429-5.525-1.429-8,0 l-36.08,23.44l6.96-46.48c0.345-2.506-0.515-5.028-2.32-6.8C2.495,263.659,1.669,145.285,74.17,71.765 S265.045-2.581,338.565,69.92S412.911,260.795,340.41,334.315z"/> </g> </g><g> <g> <path d="M253.215,274.8h-6.64V156.56c0-4.418-3.582-8-8-8h-69.04c-4.418,0-8,3.582-8,8v28.8c0,4.418,3.582,8,8,8h6.72v81.44h-6.72 c-4.418,0-8,3.582-8,8v28.8c0,4.418,3.582,8,8,8h83.68c4.418,0,8-3.582,8-8v-28.8C261.215,278.382,257.633,274.8,253.215,274.8z M177.535,303.6v-12.8h6.72c4.418,0,8-3.582,8-8v-97.44c0-4.418-3.582-8-8-8h-6.72v-12.8h52.96V282.8c0,4.418,3.582,8,8,8h6.64 l0.08,12.8H177.535z"/> </g> </g><g> <g> <path d="M207.375,70.4c-18.513,0-33.52,15.007-33.52,33.52c0,18.513,15.007,33.52,33.52,33.52s33.52-15.007,33.52-33.52 C240.895,85.407,225.887,70.4,207.375,70.4z M207.375,121.52c-9.676,0-17.52-7.844-17.52-17.52 c-0.044-9.676,7.764-17.556,17.44-17.6c0.027,0,0.053,0,0.08,0v0.08c9.676,0,17.52,7.844,17.52,17.52 S217.051,121.52,207.375,121.52z"/> </g> </g></symbol><symbol id="brain" viewBox="0 0 480.059 480.059"><title>brain</title><g> <g> <path d="M480.029,372.006l-0.113-145.965c-0.04-18.778-15.26-33.987-34.039-34.012c-16.526-0.021-30.672,11.847-33.523,28.125 l-18.875,106.969c-7.636-1.013-15.372,0.896-21.66,5.344l-64.391,45.293c-2.132,1.496-3.4,3.938-3.398,6.543v87.727 c0,4.418,3.582,8,8,8h80c4.418,0,8-3.582,8-8v-10.121l52.668-33.535C470.478,415.185,480.686,394.134,480.029,372.006z M443.939,414.982L443.939,414.982l-56.207,35.785c-2.306,1.47-3.702,4.015-3.703,6.75v6.512h-64v-75.574l60.992-42.902 c6.642-4.667,15.81-3.066,20.476,3.576c4.563,6.495,3.146,15.44-3.203,20.205l-43.066,32.297l9.602,12.797l43.066-32.297 c13.562-10.174,16.308-29.415,6.134-42.977c-0.871-1.161-1.823-2.259-2.85-3.285c-0.821-0.82-1.685-1.594-2.59-2.32l19.52-110.613 c1.73-9.811,11.087-16.363,20.898-14.632c8.617,1.52,14.901,9.004,14.906,17.753l0.114,145.957 C464.708,388.749,457.217,404.772,443.939,414.982z"/> </g> </g><g> <g> <path d="M172.63,377.76l-64.391-45.293c-6.288-4.448-14.025-6.356-21.66-5.344L67.704,220.154 c-3.266-18.514-20.922-30.875-39.436-27.609c-16.258,2.868-28.114,16.987-28.127,33.496L0.029,372.014 c-0.645,22.192,9.629,43.291,27.496,56.469l52.504,33.426v10.121c0,4.418,3.582,8,8,8h80c4.418,0,8-3.582,8-8v-87.727 C176.03,381.698,174.762,379.256,172.63,377.76z M160.029,464.029h-64v-6.512c-0.001-2.735-1.397-5.28-3.703-6.75l-56.043-35.676 c-13.365-10.199-20.923-26.271-20.254-43.07l0.113-145.965c0.007-9.963,8.089-18.034,18.051-18.027 c8.75,0.006,16.234,6.29,17.753,14.906l19.519,110.613c-0.905,0.726-1.769,1.5-2.59,2.32c-11.988,11.988-11.988,31.424,0,43.412 c1.026,1.026,2.124,1.979,3.285,2.85l43.066,32.297l9.602-12.797l-43.066-32.297c-6.492-4.873-7.804-14.086-2.931-20.578 c4.765-6.348,13.71-7.766,20.205-3.203l60.992,42.902V464.029z"/> </g> </g><g> <g> <path d="M240.029,0.029h-0.504l0.504,16c9.791-0.001,19.559,0.934,29.172,2.793l3.055-15.703 C261.636,1.062,250.845,0.027,240.029,0.029z"/> </g> </g><g> <g> <path d="M206.759,3.326c-10.787,2.167-21.333,5.396-31.484,9.641l6.172,14.758c9.177-3.833,18.71-6.751,28.461-8.711 L206.759,3.326z"/> </g> </g><g> <g> <path d="M347.564,275.451c-7.037,7.042-14.744,13.381-23.012,18.926l8.914,13.289c9.131-6.126,17.644-13.127,25.418-20.902 L347.564,275.451z"/> </g> </g><g> <g> <path d="M303.798,12.561l-6.078,14.797c9.202,3.784,18.011,8.462,26.301,13.965l8.852-13.328 C323.71,21.909,313.972,16.74,303.798,12.561z"/> </g> </g><g> <g> <path d="M392.029,168.029c0.001,9.952-0.966,19.88-2.887,29.645l15.695,3.102c2.123-10.786,3.192-21.753,3.191-32.746v-0.68 L392.029,168.029z"/> </g> </g><g> <g> <path d="M358.384,48.798L347.111,60.15c7.065,7.016,13.429,14.703,19.004,22.953l13.258-8.953 C373.217,65.038,366.188,56.547,358.384,48.798z"/> </g> </g><g> <g> <path d="M298.318,308.455c-9.186,3.814-18.726,6.712-28.481,8.652l3.117,15.695c10.791-2.147,21.343-5.354,31.504-9.574 L298.318,308.455z"/> </g> </g><g> <g> <path d="M395.029,103.111l-14.758,6.188c3.845,9.175,6.776,18.707,8.75,28.457l15.68-3.172 C402.518,123.801,399.279,113.259,395.029,103.111z"/> </g> </g><g> <g> <path d="M380.513,226.17c-3.814,9.192-8.52,17.988-14.051,26.262l13.305,8.891c6.111-9.146,11.312-18.868,15.527-29.027 L380.513,226.17z"/> </g> </g><g> <g> <path d="M240.029,320.029c-9.899,0.002-19.774-0.955-29.488-2.859l-3.086,15.703c10.731,2.1,21.64,3.157,32.574,3.156h0.168 L240.029,320.029z"/> </g> </g><g> <g> <path d="M113.767,252.685l-13.281,8.93c6.138,9.124,13.151,17.629,20.938,25.395l11.297-11.328 C125.67,268.65,119.322,260.949,113.767,252.685z"/> </g> </g><g> <g> <path d="M146.294,28.584c-9.121,6.146-17.619,13.167-25.375,20.965l11.344,11.281c7.02-7.057,14.713-13.411,22.969-18.973 L146.294,28.584z"/> </g> </g><g> <g> <path d="M75.15,135.631c-2.077,10.674-3.122,21.524-3.121,32.398v0.336l16-0.336c-0.002-9.847,0.944-19.671,2.824-29.336 L75.15,135.631z"/> </g> </g><g> <g> <path d="M100.091,75.037c-6.095,9.156-11.276,18.889-15.469,29.059l14.797,6.094c3.789-9.2,8.476-18.004,13.992-26.285 L100.091,75.037z"/> </g> </g><g> <g> <path d="M90.978,197.986l-15.688,3.137c2.157,10.789,5.375,21.339,9.606,31.496l14.766-6.156 C95.838,217.279,92.93,207.741,90.978,197.986z"/> </g> </g><g> <g> <path d="M155.771,294.564l-8.883,13.305c9.151,6.104,18.878,11.296,29.043,15.5l6.109-14.789 C172.846,304.78,164.047,300.086,155.771,294.564z"/> </g> </g><g> <g> <path d="M360.029,136.029c0-24.559-15.258-50.895-40.434-55.344c-2.432-27.295-25.13-48.319-52.531-48.656 c-9.521-0.008-18.865,2.569-27.035,7.457c-8.17-4.888-17.514-7.465-27.035-7.457c-28.278,0.408-51.65,22.17-54.07,50.348 c-23.378,7.35-39.18,29.148-38.895,53.652c-0.009,11.407,3.405,22.554,9.801,32c-6.396,9.446-9.81,20.593-9.801,32 c0,24.559,15.258,50.895,40.434,55.344c2.432,27.295,25.13,48.319,52.531,48.656c9.521,0.008,18.865-2.569,27.035-7.457 c8.17,4.888,17.514,7.465,27.035,7.457c28.278-0.408,51.65-22.17,54.07-50.348c23.378-7.35,39.18-29.148,38.895-53.652 c0.009-11.407-3.405-22.554-9.801-32C356.623,158.584,360.038,147.436,360.029,136.029z M232.029,104.029c0,8.837-7.163,16-16,16 s-16-7.163-16-16h-16c0.02,17.665,14.335,31.98,32,32c5.635-0.032,11.158-1.569,16-4.452v151.006 c-5.726,3.526-12.311,5.409-19.035,5.446c-18.763-0.417-34.313-14.669-36.361-33.324c16.988-4.706,26.944-22.292,22.237-39.28 c-3.838-13.854-16.465-23.433-30.841-23.396v16c8.837,0,16,7.163,16,16s-7.163,16-16,16c-19.141,0-32-20.684-32-40 c-0.017-9.824,3.504-19.325,9.918-26.766c2.605-3.003,2.605-7.466,0-10.469c-6.414-7.441-9.935-16.942-9.918-26.766 c-0.355-19.183,13.173-35.828,32.023-39.402c3.921-0.998,6.648-4.552,6.598-8.598c-0.423-21.621,16.725-39.509,38.344-40 c6.724,0.036,13.309,1.92,19.035,5.446V104.029z M334.111,173.264c6.414,7.441,9.935,16.942,9.918,26.766 c0.355,19.183-13.173,35.828-32.023,39.402c-3.921,0.998-6.648,4.552-6.598,8.598c0.423,21.621-16.725,39.509-38.344,40 c-6.724-0.036-13.309-1.92-19.035-5.446v-90.554c0-8.837,7.163-16,16-16s16,7.163,16,16h16c-0.02-17.665-14.335-31.98-32-32 c-5.635,0.032-11.158,1.569-16,4.452V53.475c5.726-3.526,12.311-5.409,19.035-5.446c18.762,0.417,34.313,14.669,36.361,33.324 c-16.988,4.706-26.944,22.292-22.237,39.28c3.838,13.854,16.465,23.433,30.841,23.396v-16c-8.837,0-16-7.163-16-16s7.163-16,16-16 c19.141,0,32,20.684,32,40c0.017,9.824-3.504,19.325-9.918,26.766C331.505,165.798,331.505,170.26,334.111,173.264z"/> </g> </g></symbol></svg>